<svg xmlns="http://www.w3.org/2000/svg" xmlns:osb="http://www.openswatchbook.org/uri/2009/osb" xmlns:svg="http://www.w3.org/2000/svg" id="svg2" width="100.285" height="65.023" version="1.1" viewBox="0 0 94.018 60.959"><defs id="defs4"><linearGradient id="linearGradient4208" osb:paint="gradient"><stop style="stop-color:#00008c;stop-opacity:1" id="stop4210" offset="0"/><stop style="stop-color:#00008c;stop-opacity:0" id="stop4212" offset="1"/></linearGradient><filter style="color-interpolation-filters:sRGB" id="filter4471"><feGaussianBlur id="feGaussianBlur4473" in="SourceAlpha" result="result0" stdDeviation="2.3"/><feMorphology id="feMorphology4475" in="SourceAlpha" radius="6.6" result="result1"/><feGaussianBlur id="feGaussianBlur4477" in="result1" stdDeviation="8.9"/><feColorMatrix id="feColorMatrix4479" result="result91" values="1 0 0 0 0 0 1 0 0 0 0 0 1 0 0 0 0 0 0.3 0"/><feComposite id="feComposite4481" in="result0" in2="result91" operator="out" result="result2"/><feGaussianBlur id="feGaussianBlur4483" result="result4" stdDeviation="1.7"/><feDiffuseLighting id="feDiffuseLighting4485" surfaceScale="10"><feDistantLight id="feDistantLight4487" azimuth="225" elevation="45"/></feDiffuseLighting><feBlend id="feBlend4489" in2="SourceGraphic" mode="multiply"/><feComposite id="feComposite4491" in2="SourceAlpha" operator="in" result="result3"/><feSpecularLighting id="feSpecularLighting4493" in="result4" specularExponent="17.9" surfaceScale="5"><feDistantLight id="feDistantLight4495" azimuth="225" elevation="45"/></feSpecularLighting><feComposite id="feComposite4497" in2="result3" operator="atop"/></filter><filter style="color-interpolation-filters:sRGB" id="filter4739"><feGaussianBlur id="feGaussianBlur4741" in="SourceGraphic" result="blur" stdDeviation="6"/><feDiffuseLighting id="feDiffuseLighting4743" diffuseConstant="1" lighting-color="#fff" result="diffuse" surfaceScale="10"><feDistantLight id="feDistantLight4745" azimuth="235" elevation="25"/></feDiffuseLighting><feComposite id="feComposite4747" in="diffuse" in2="diffuse" k1="1" k2="0" k3="0" k4="0" operator="arithmetic" result="composite1"/><feComposite id="feComposite4749" in="composite1" in2="SourceGraphic" k1="1" k2="0" k3="1" k4="0" operator="arithmetic" result="composite2"/></filter><filter style="color-interpolation-filters:sRGB" id="filter4841"><feGaussianBlur id="feGaussianBlur4843" in="SourceAlpha" result="blur" stdDeviation="6"/><feSpecularLighting id="feSpecularLighting4845" in="blur" lighting-color="#fff" result="specular" specularConstant="1" specularExponent="25" surfaceScale="10"><feDistantLight id="feDistantLight4847" azimuth="235" elevation="45"/></feSpecularLighting><feComposite id="feComposite4849" in="specular" in2="SourceGraphic" k1="0" k2="1" k3="1" k4="0" operator="arithmetic" result="composite1"/><feComposite id="feComposite4851" in="composite1" in2="SourceAlpha" operator="in" result="composite2"/></filter><filter style="color-interpolation-filters:sRGB" id="filter5036" width="1.4" height="1.4" x="-.2" y="-.2"><feGaussianBlur id="feGaussianBlur5038" result="result10" stdDeviation="3"/><feBlend id="feBlend5040" in="result10" in2="result10" mode="normal" result="fbSourceGraphic"/><feGaussianBlur id="feGaussianBlur5042" in="fbSourceGraphic" result="result8" stdDeviation="3"/><feTurbulence id="feTurbulence5044" baseFrequency=".2" numOctaves="1" result="result7" seed="0" type="fractalNoise"/><feComposite id="feComposite5046" in="result8" in2="result8" operator="in" result="result6"/><feDisplacementMap id="feDisplacementMap5048" in="result7" in2="result6" result="result4" scale="50" xChannelSelector="R" yChannelSelector="G"/><feComposite id="feComposite5050" in="result8" in2="result4" k1="1" k2="0" k3="1" k4="0" operator="arithmetic" result="result2"/><feComposite id="feComposite5052" in="fbSourceGraphic" in2="result2" operator="in" result="fbSourceGraphic"/><feDisplacementMap id="feDisplacementMap5054" in2="result4" scale="50" xChannelSelector="R" yChannelSelector="G"/></filter><filter style="color-interpolation-filters:sRGB" id="filter5103" width="1.2" height="1.2" x="-.1" y="-.1"><feTurbulence id="feTurbulence5105" baseFrequency="1" numOctaves="3" result="result1" seed="50" type="fractalNoise"/><feColorMatrix id="feColorMatrix5107" in="SourceGraphic" result="result0" type="luminanceToAlpha"/><feColorMatrix id="feColorMatrix5109" result="result2" values="1 0 0 0 0 0 1 0 0 0 0 0 1 0 0 0 0 0 0.5 0"/><feComposite id="feComposite5111" in="result1" in2="result2" operator="over" result="result3"/><feColorMatrix id="feColorMatrix5113" result="result91" values="1 0 0 0 0 0 1 0 0 0 0 0 1 0 0 0 0 0 5 -3.2"/><feComposite id="feComposite5115" in2="result91" k1="1.5" k2="0" k3="0" k4="0" operator="arithmetic" result="result93"/><feComposite id="feComposite5117" in="SourceGraphic" in2="result93" operator="out" result="result4"/><feComposite id="feComposite5119" in2="result4" k1="1" k2=".5" k3="0" k4="0" operator="arithmetic"/><feDisplacementMap id="feDisplacementMap5121" in2="result1" result="result92" scale="15" xChannelSelector="R" yChannelSelector="A"/></filter><filter style="color-interpolation-filters:sRGB" id="filter4287"><feGaussianBlur id="feGaussianBlur4289" in="SourceGraphic" result="result0" stdDeviation="6"/><feDiffuseLighting id="feDiffuseLighting4291" diffuseConstant="1" lighting-color="#fff" result="result5" surfaceScale="4"><feDistantLight id="feDistantLight4293" azimuth="235" elevation="45"/></feDiffuseLighting><feComposite id="feComposite4295" in="result5" in2="SourceGraphic" k1="1.4" k2="0" k3="0" k4="0" operator="arithmetic" result="fbSourceGraphic"/><feGaussianBlur id="feGaussianBlur4297" in="fbSourceGraphic" result="result0" stdDeviation="6"/><feSpecularLighting id="feSpecularLighting4299" in="result0" lighting-color="#fff" result="result1" specularConstant="1" specularExponent="25" surfaceScale="4"><feDistantLight id="feDistantLight4301" azimuth="235" elevation="45"/></feSpecularLighting><feComposite id="feComposite4303" in="fbSourceGraphic" in2="result1" k1="0" k2="1" k3="1" k4="0" operator="arithmetic" result="result4"/><feComposite id="feComposite4305" in="result4" in2="SourceGraphic" operator="in" result="fbSourceGraphic"/><feColorMatrix id="feColorMatrix4580" in="fbSourceGraphic" result="fbSourceGraphicAlpha" values="0 0 0 -1 0 0 0 0 -1 0 0 0 0 -1 0 0 0 0 1 0"/><feGaussianBlur id="feGaussianBlur4582" in="fbSourceGraphicAlpha" result="result0" stdDeviation="2.3"/><feMorphology id="feMorphology4584" in="fbSourceGraphicAlpha" radius="6.6" result="result1"/><feGaussianBlur id="feGaussianBlur4586" in="result1" stdDeviation="8.9"/><feColorMatrix id="feColorMatrix4588" result="result91" values="1 0 0 0 0 0 1 0 0 0 0 0 1 0 0 0 0 0 0.3 0"/><feComposite id="feComposite4590" in="result0" in2="result91" operator="out" result="result2"/><feGaussianBlur id="feGaussianBlur4592" result="result4" stdDeviation="1.7"/><feDiffuseLighting id="feDiffuseLighting4594" result="result92" surfaceScale="10"><feDistantLight id="feDistantLight4596" azimuth="225" elevation="45"/></feDiffuseLighting><feBlend id="feBlend4598" in2="fbSourceGraphic" mode="multiply" result="result93"/><feComposite id="feComposite4600" in2="fbSourceGraphicAlpha" operator="in" result="result3"/><feSpecularLighting id="feSpecularLighting4602" in="result4" result="result94" specularExponent="17.9" surfaceScale="5"><feDistantLight id="feDistantLight4604" azimuth="225" elevation="45"/></feSpecularLighting><feComposite id="feComposite4606" in2="result3" operator="atop"/></filter></defs><metadata id="metadata7"/><g id="layer1" transform="translate(-421.03099,-450.95535)"><path style="opacity:1;fill:#fff;fill-opacity:1;stroke:none;stroke-width:1.13900006;stroke-miterlimit:10;stroke-dasharray:4.556,4.556;stroke-dashoffset:0;stroke-opacity:1" id="rect3344-6" d="m 434.4384,451.9089 77.55076,0 0,54.28571 -77.55076,0 z"/><g style="font-style:normal;font-weight:400;font-size:163.26750183px;line-height:125%;font-family:sans-serif;letter-spacing:0;word-spacing:0;fill:#047000;fill-opacity:1;stroke:#077700;stroke-width:1.79602301;stroke-linecap:round;stroke-linejoin:miter;stroke-miterlimit:64.30000305;stroke-dasharray:none;stroke-opacity:.5;filter:url(#filter4739)" id="text3340-1" transform="matrix(1.2980779,0,0,0.63799661,240.04575,-10.883182)"><path id="path4259" d="m 210.95589,730.36714 0,13.71192 q -6.21819,-3.42798 -12.51611,-5.10211 -6.21819,-1.75385 -12.59583,-1.75385 -14.26996,0 -22.16229,9.08813 -7.89232,9.00841 -7.89232,25.35111 0,16.34269 7.89232,25.43082 7.89233,9.00842 22.16229,9.00842 6.37764,0 12.59583,-1.67413 6.29792,-1.75385 12.51611,-5.18183 l 0,13.55247 q -6.13847,2.86994 -12.75527,4.30491 -6.53708,1.43497 -13.95108,1.43497 -20.16928,0 -32.04762,-12.67556 -11.87835,-12.67555 -11.87835,-34.20007 0,-21.84341 11.95807,-34.35952 12.03779,-12.51611 32.92455,-12.51611 6.77623,0 13.23359,1.43497 6.45736,1.35524 12.51611,4.14546 z"/></g><g style="font-style:normal;font-weight:400;font-size:39.86928558px;line-height:125%;font-family:sans-serif;letter-spacing:0;word-spacing:0;fill:#1e0061;fill-opacity:1;stroke:#b2b2b2;stroke-width:.99673212px;stroke-linecap:butt;stroke-linejoin:miter;stroke-opacity:.00990098" id="text3336-2-0-3" transform="matrix(1.0662976,0,0,0.93782449,5.7142857,0.35714285)"><path style="font-style:italic;font-variant:normal;font-weight:400;font-stretch:normal;font-family:'Lucida Handwriting';-inkscape-font-specification:'Lucida Handwriting Italic';fill:#1e0061;fill-opacity:1;stroke-width:.99673212px" id="path4285" d="m 431.57472,512.90018 -2.68651,13.45199 q -0.36988,1.8494 -0.36988,2.39449 0,0.54509 0.25308,1.16804 -1.96621,0.99284 -3.60147,0.99284 -1.01231,0 -1.01231,-0.81763 0,-0.42828 0.38935,-2.41396 l 2.93958,-14.77577 -0.29201,0 q -1.75207,0 -3.77668,0.83709 0.9539,-2.06354 1.6742,-2.64757 0.73976,-0.60349 2.33609,-0.60349 l 0.52562,0 2.33609,-11.64152 -0.42828,0 q -4.2439,0 -6.7552,2.31663 0.75923,-3.07585 2.6281,-4.10763 1.32379,-0.72029 8.21525,-0.72029 l 5.11994,0 q 5.72342,0 9.51957,-1.01231 -1.20698,2.12195 -2.53077,2.84225 -1.30431,0.70082 -4.02975,0.70082 l -1.71314,-0.0195 -5.95703,0 -2.31662,11.64152 4.20496,0 q 3.91295,0 6.46319,-0.99283 -0.93444,2.19982 -2.16089,2.80331 -1.20698,0.60349 -4.76952,0.60349 l -4.20496,0 z"/><path style="font-size:64.99999762%;baseline-shift:sub;stroke-width:.73435736px" id="path4287" d="m 442.97291,522.04036 q -3.12742,5.87754 -5.73813,5.87754 -0.96089,0 -1.53199,-0.90128 -0.57109,-0.91087 -0.57109,-2.42581 0,-3.00109 1.70422,-5.27347 1.71328,-2.28198 3.97046,-2.28198 1.34162,0 2.93706,0.90128 0.26288,-0.88211 2.03962,-0.88211 l 0.26288,0 q -0.52577,0.93005 -0.77053,2.23403 l -2.13027,11.34279 q -0.22662,1.19852 -0.22662,2.09021 0,0.5657 0.23569,1.02593 -0.91556,0.31641 -1.396,0.31641 -0.74334,0 -0.74334,-0.90128 0,-0.69994 0.29915,-2.29157 l 1.65889,-8.83069 z m 0.47138,-2.51209 q -1.89458,-1.31357 -3.13648,-1.31357 -1.35975,0 -2.3569,1.76421 -0.98808,1.76422 -0.98808,4.17085 0,1.93681 1.18751,1.93681 1.29629,0 4.95855,-6.02137 0.0453,-0.0863 0.3354,-0.53693 z"/><path style="font-style:italic;font-variant:normal;font-weight:400;font-stretch:normal;font-family:'Lucida Handwriting';-inkscape-font-specification:'Lucida Handwriting Italic';fill:#1e0061;fill-opacity:1;stroke-width:.99673212px" id="path4289" d="m 472.35477,517.88625 q 0.36988,0.87603 0.36988,1.38218 0,2.53077 -4.34123,4.94473 -4.32177,2.41396 -8.87715,2.41396 -4.98366,0 -7.88431,-2.90065 -2.88117,-2.90064 -2.88117,-7.94271 0,-7.96217 5.21727,-13.68559 5.21727,-5.72343 12.47861,-5.72343 2.95905,0 4.98367,1.05124 2.02461,1.05124 2.02461,2.5697 0,1.36272 -1.75207,2.99799 -2.35556,-4.71112 -6.67733,-4.71112 -4.73058,0 -8.25419,4.92526 -3.5236,4.90579 -3.5236,11.46631 0,4.1855 2.10248,6.63839 2.12195,2.43343 5.72343,2.43343 6.1517,0 11.2911,-5.85969 z"/></g></g></svg>